<svg id="Icons" xmlns="http://www.w3.org/2000/svg" width="38.77" height="31.494" viewBox="0 0 38.77 31.494">
  <path id="Контур_582" data-name="Контур 582" d="M43.08,27.5l-.4.883,3.12,1.56V50.07l-8.239-4.119V37.827h-.969v8.124l-8.723,4.362V30.188L31.446,28.4l-.4-.883-3.661,1.83L17.692,24.5,8,29.346V51.639l9.692-4.846,9.692,4.846,9.692-4.846,9.692,4.846V29.346ZM17.208,45.951,8.969,50.07V29.945l8.239-4.119ZM26.9,50.313l-8.723-4.362V25.826L26.9,30.188Z" transform="translate(-8 -20.145)" fill="#484e58"/>
  <path id="Контур_583" data-name="Контур 583" d="M62.652,16.482a4,4,0,0,1,3.329,1.774,4.066,4.066,0,0,1,.43,3.732l-2.247,4.967-1.512,3.173-1.5-3.153-2.256-4.985a4.071,4.071,0,0,1,.436-3.74,4,4,0,0,1,3.324-1.767m0-.969a4.969,4.969,0,0,0-4.128,2.2A5.04,5.04,0,0,0,58,22.361l2.268,5.012,1.957,4.1a.485.485,0,0,0,.859,0l1.957-4.1,2.267-5.012a5.04,5.04,0,0,0-.525-4.652A4.971,4.971,0,0,0,62.655,15.513Z" transform="translate(-33.593 -15.513)" fill="#484e58"/>
  <path id="Контур_584" data-name="Контур 584" d="M65.681,22.392A1.179,1.179,0,1,1,64.5,23.571a1.166,1.166,0,0,1,1.153-1.179h.025m0-.969a2.14,2.14,0,1,0,.021,0h-.018Z" transform="translate(-36.622 -18.559)" fill="#484e58"/>
</svg>
