<svg xmlns="http://www.w3.org/2000/svg" width="41.335" height="37.184" viewBox="0 0 41.335 37.184">
  <path id="Icon_contacts" data-name="Icon contacts" d="M42.233,23.441a4.358,4.358,0,0,0-1.1.144l-1.056-3.216a5.979,5.979,0,1,0-5.52-10.607,6.117,6.117,0,0,0-3.12,4.08l-4.224-.384a3.96,3.96,0,0,0-7.92.144,4.19,4.19,0,0,0,.72,2.256l-5.28,5.232A6,6,0,1,0,10.747,31.6h.432l1.3,6.912a3.963,3.963,0,1,0,4.944,2.64l-.288-.72,4.272-2.16h0a7.156,7.156,0,0,0,10.031,1.536,7.236,7.236,0,0,0,2.64-7.872l4.656-2.544a3.968,3.968,0,0,0,6.864-3.984A3.874,3.874,0,0,0,42.233,23.441Zm-7.872-4.272a2.916,2.916,0,0,1,5.808,0A5.135,5.135,0,0,1,34.361,19.169Zm1.584-4.944a1.342,1.342,0,0,1,1.344-1.344,1.312,1.312,0,0,1,1.344,1.344,1.342,1.342,0,0,1-1.344,1.344,1.374,1.374,0,0,1-1.344-1.344ZM37.289,10a5.039,5.039,0,0,1,5.04,5.04,5.284,5.284,0,0,1-1.3,3.408,3.938,3.938,0,0,0-2.16-2.544,2.309,2.309,0,0,0-3.168-3.36,2.289,2.289,0,0,0-.1,3.264l.1.1a3.829,3.829,0,0,0-2.16,2.544,5.017,5.017,0,0,1,.336-7.1A5.089,5.089,0,0,1,37.289,10ZM34.073,20.129l-3.888,7.344a7.086,7.086,0,0,0-9.215,2.976L16.315,27.9a6.066,6.066,0,0,0-.912-6.144l5.28-5.28a3.912,3.912,0,0,0,5.568-.432,3.755,3.755,0,0,0,.864-1.68l4.224.384v.288A5.888,5.888,0,0,0,34.073,20.129ZM22.6,12.978a.672.672,0,1,1,.672.672h0A.721.721,0,0,1,22.6,12.978Zm.672,1.584a1.649,1.649,0,0,1,1.632,1.392,2.894,2.894,0,0,1-3.264,0A1.66,1.66,0,0,1,23.274,14.562Zm0-4.08A3.065,3.065,0,0,1,26.3,13.458a3.016,3.016,0,0,1-.576,1.776,2.745,2.745,0,0,0-1.152-1.3,1.507,1.507,0,0,0,.336-1.008,1.632,1.632,0,0,0-3.264,0,1.81,1.81,0,0,0,.336,1.008,2.541,2.541,0,0,0-1.152,1.3,2.974,2.974,0,0,1,2.448-4.752ZM5.755,25.6a5.04,5.04,0,0,1,10.079,0,5.284,5.284,0,0,1-1.3,3.408,3.938,3.938,0,0,0-2.16-2.544,2.332,2.332,0,0,0,.1-3.264,2.289,2.289,0,0,0-3.264-.1,2.332,2.332,0,0,0-.1,3.264l.1.1a3.829,3.829,0,0,0-2.16,2.544A5.04,5.04,0,0,1,5.755,25.6Zm3.7-.816a1.342,1.342,0,0,1,1.344-1.344,1.312,1.312,0,0,1,1.344,1.344,1.344,1.344,0,0,1-2.688,0ZM7.867,29.729a2.916,2.916,0,0,1,5.808,0A5.135,5.135,0,0,1,7.867,29.729ZM11.995,44.8a1.649,1.649,0,0,1,3.264,0A3.079,3.079,0,0,1,11.995,44.8ZM13,41.776a.672.672,0,1,1,.672.672A.721.721,0,0,1,13,41.776Zm3.072,2.256a2.745,2.745,0,0,0-1.152-1.3,1.506,1.506,0,0,0,.336-1.008,1.632,1.632,0,1,0-3.264,0,1.81,1.81,0,0,0,.336,1.008,2.541,2.541,0,0,0-1.152,1.3,2.991,2.991,0,1,1,4.848-3.5,2.88,2.88,0,0,1,.048,3.5Zm.48-4.416a3.856,3.856,0,0,0-2.88-1.3h-.192l-1.3-6.912a6.027,6.027,0,0,0,3.7-2.688l4.656,2.544a7.242,7.242,0,0,0,.336,6.144Zm7.008-.576a3.659,3.659,0,0,1,7.3,0A6.2,6.2,0,0,1,23.562,39.04Zm1.92-6.048A1.728,1.728,0,1,1,27.21,34.72h0A1.721,1.721,0,0,1,25.482,32.992Zm6.24,5.328a4.658,4.658,0,0,0-2.784-3.264,2.692,2.692,0,1,0-3.792-.336,2.217,2.217,0,0,0,.336.336A4.658,4.658,0,0,0,22.7,38.32a6.246,6.246,0,1,1,9.023,0Zm2.016-7.3A7.384,7.384,0,0,0,31.05,27.9l3.888-7.344a6.1,6.1,0,0,0,4.224.192l1.056,3.216a3.912,3.912,0,0,0-1.824,4.512Zm6.816-1.1a1.649,1.649,0,0,1,3.264,0A3.079,3.079,0,0,1,40.553,29.921ZM41.561,26.9a.672.672,0,1,1,.672.672h0a.721.721,0,0,1-.672-.672Zm3.072,2.256a2.745,2.745,0,0,0-1.152-1.3,1.506,1.506,0,0,0,.336-1.008,1.632,1.632,0,1,0-3.264,0,1.81,1.81,0,0,0,.336,1.008,2.541,2.541,0,0,0-1.152,1.3,2.991,2.991,0,0,1,4.848-3.5,2.88,2.88,0,0,1,.048,3.5Z" transform="translate(-4.791 -9.081)" fill="#484e58"/>
</svg>
