<svg xmlns="http://www.w3.org/2000/svg" width="179.713" height="39.679" viewBox="0 0 179.713 39.679">
  <g id="Сгруппировать_3" data-name="Сгруппировать 3" transform="translate(-771.782 548.546)">
    <g id="Сгруппировать_1" data-name="Сгруппировать 1" transform="translate(771.782 -548.546)">
      <path id="Контур_1" data-name="Контур 1" d="M771.782-536.742v-.794l.688-.4.688.4v.794l-.687.4Z" transform="translate(-771.782 550.63)" fill="#ff6e00"/>
      <path id="Контур_2" data-name="Контур 2" d="M774.846-542.048v-.794l.687-.4.688.4v.794l-.687.4Z" transform="translate(-771.18 549.588)" fill="#ff6e00"/>
      <path id="Контур_3" data-name="Контур 3" d="M784.037-547.356v-.794l.688-.4.688.4v.794l-.687.4Z" transform="translate(-769.375 548.546)" fill="#ff6e00"/>
      <path id="Контур_4" data-name="Контур 4" d="M790.164-547.356v-.794l.687-.4.687.4v.794l-.687.4Z" transform="translate(-768.173 548.546)" fill="#ff6e00"/>
      <path id="Контур_5" data-name="Контур 5" d="M784.037-515.516v-.794l.688-.4.688.4v.794l-.687.4Z" transform="translate(-769.375 554.798)" fill="#ff6e00"/>
      <path id="Контур_6" data-name="Контур 6" d="M790.164-515.516v-.794l.687-.4.687.4v.794l-.687.4Z" transform="translate(-768.173 554.798)" fill="#ff6e00"/>
      <path id="Контур_7" data-name="Контур 7" d="M771.782-526.129v-.794l.688-.4.688.4v.794l-.687.4Z" transform="translate(-771.782 552.714)" fill="#ff6e00"/>
      <path id="Контур_8" data-name="Контур 8" d="M774.846-520.822v-.794l.687-.4.688.4v.794l-.687.4Z" transform="translate(-771.18 553.756)" fill="#ff6e00"/>
      <path id="Контур_9" data-name="Контур 9" d="M802.42-536.742v-.794l.687-.4.687.4v.794l-.687.4Z" transform="translate(-765.766 550.63)" fill="#ff6e00"/>
      <path id="Контур_10" data-name="Контур 10" d="M799.356-542.048v-.794l.688-.4.688.4v.794l-.687.4Z" transform="translate(-766.368 549.588)" fill="#ff6e00"/>
      <path id="Контур_11" data-name="Контур 11" d="M802.42-526.129v-.794l.687-.4.687.4v.794l-.687.4Z" transform="translate(-765.766 552.714)" fill="#ff6e00"/>
      <path id="Контур_12" data-name="Контур 12" d="M799.356-520.822v-.794l.688-.4.688.4v.794l-.687.4Z" transform="translate(-766.368 553.756)" fill="#ff6e00"/>
      <path id="Контур_13" data-name="Контур 13" d="M782.294-535.144v-3.2l2.772-1.6,2.772,1.6v3.2l-2.772,1.6Z" transform="translate(-769.718 550.235)" fill="#d91900"/>
      <path id="Контур_14" data-name="Контур 14" d="M788.422-535.144v-3.2l2.772-1.6,2.772,1.6v3.2l-2.772,1.6Z" transform="translate(-768.515 550.235)" fill="#d91900"/>
      <path id="Контур_15" data-name="Контур 15" d="M782.294-524.53v-3.2l2.772-1.6,2.772,1.6v3.2l-2.772,1.6Z" transform="translate(-769.718 552.319)" fill="#d91900"/>
      <path id="Контур_16" data-name="Контур 16" d="M788.422-524.53v-3.2l2.772-1.6,2.772,1.6v3.2l-2.772,1.6Z" transform="translate(-768.515 552.319)" fill="#d91900"/>
      <path id="Контур_17" data-name="Контур 17" d="M779.231-529.837v-3.2l2.772-1.6,2.772,1.6v3.2l-2.772,1.6Z" transform="translate(-770.319 551.277)" fill="#d91900"/>
      <path id="Контур_18" data-name="Контур 18" d="M791.486-529.837v-3.2l2.772-1.6,2.772,1.6v3.2l-2.772,1.6Z" transform="translate(-767.913 551.277)" fill="#d91900"/>
      <path id="Контур_19" data-name="Контур 19" d="M777.178-536.072v-1.8l1.562-.9,1.562.9v1.8l-1.562.9Z" transform="translate(-770.722 550.465)" fill="#e53600"/>
      <path id="Контур_20" data-name="Контур 20" d="M795.561-536.072v-1.8l1.562-.9,1.562.9v1.8l-1.562.9Z" transform="translate(-767.113 550.465)" fill="#e53600"/>
      <path id="Контур_21" data-name="Контур 21" d="M786.37-541.378v-1.8l1.561-.9,1.562.9v1.8l-1.562.9Z" transform="translate(-768.917 549.423)" fill="#e53600"/>
      <path id="Контур_22" data-name="Контур 22" d="M777.178-525.458v-1.8l1.562-.9,1.562.9v1.8l-1.562.9Z" transform="translate(-770.722 552.548)" fill="#e53600"/>
      <path id="Контур_23" data-name="Контур 23" d="M795.561-525.458v-1.8l1.562-.9,1.562.9v1.8l-1.562.9Z" transform="translate(-767.113 552.548)" fill="#e53600"/>
      <path id="Контур_24" data-name="Контур 24" d="M786.37-520.151v-1.8l1.561-.9,1.562.9v1.8l-1.562.9Z" transform="translate(-768.917 553.59)" fill="#e53600"/>
      <path id="Контур_25" data-name="Контур 25" d="M780.74-541.835v-1.116l.966-.558.966.558v1.116l-.966.558Z" transform="translate(-770.023 549.536)" fill="#ff6e00"/>
      <path id="Контур_26" data-name="Контур 26" d="M793-541.835v-1.116l.966-.558.966.558v1.116l-.966.558Z" transform="translate(-767.617 549.536)" fill="#ff6e00"/>
      <path id="Контур_27" data-name="Контур 27" d="M780.74-520.608v-1.116l.966-.558.966.558v1.116l-.966.558Z" transform="translate(-770.023 553.703)" fill="#ff6e00"/>
      <path id="Контур_28" data-name="Контур 28" d="M793-520.608v-1.116l.966-.558.966.558v1.116l-.966.558Z" transform="translate(-767.617 553.703)" fill="#ff6e00"/>
      <path id="Контур_29" data-name="Контур 29" d="M774.613-531.222v-1.116l.966-.558.966.558v1.116l-.966.558Z" transform="translate(-771.226 551.619)" fill="#ff6e00"/>
      <path id="Контур_30" data-name="Контур 30" d="M799.123-531.222v-1.116l.966-.558.966.558v1.116l-.966.558Z" transform="translate(-766.414 551.619)" fill="#ff6e00"/>
    </g>
    <g id="Сгруппировать_2" data-name="Сгруппировать 2" transform="translate(820.431 -536.507)">
      <path id="Контур_31" data-name="Контур 31" d="M815.272-530.1v6.862h-2.824v-15.008h2.824v6.032h6.555v-6.032h2.827v15.008h-2.827V-530.1Z" transform="translate(-812.447 538.53)" fill="#484e58"/>
      <path id="Контур_32" data-name="Контур 32" d="M828.294-530.125v4.773h7.956v2.114h-10.78v-15.008h10.78v2.114h-7.956v3.941h7.03v2.066Z" transform="translate(-809.89 538.53)" fill="#484e58"/>
      <path id="Контур_33" data-name="Контур 33" d="M836.723-523.238v-15.008H839.6l6.958,10.687v-10.687h2.826v15.008h-2.874l-6.958-10.687v10.687Z" transform="translate(-807.681 538.53)" fill="#484e58"/>
      <path id="Контур_34" data-name="Контур 34" d="M850.121-523.238v-15.008h4.7a8.849,8.849,0,0,1,5.9,1.852q2.2,1.852,2.2,5.653t-2.2,5.653a8.856,8.856,0,0,1-5.9,1.851Zm8.479-3.455a5.413,5.413,0,0,0,1.377-4.048,5.414,5.414,0,0,0-1.377-4.049,5.178,5.178,0,0,0-3.776-1.341h-1.877v10.78h1.877A5.178,5.178,0,0,0,858.6-526.693Z" transform="translate(-805.05 538.53)" fill="#484e58"/>
      <path id="Контур_35" data-name="Контур 35" d="M865.652-530.125v4.773h7.956v2.114H862.826v-15.008h10.781v2.114h-7.956v3.941h7.03v2.066Z" transform="translate(-802.556 538.53)" fill="#484e58"/>
      <path id="Контур_36" data-name="Контур 36" d="M874.081-538.246h6.482a5.738,5.738,0,0,1,4.073,1.235,4.443,4.443,0,0,1,1.293,3.372,3.946,3.946,0,0,1-3.229,4.227l4.06,6.174h-3.016l-3.705-5.914h-3.134v5.914h-2.825Zm5.888,2.114h-3.064v4.986h3.064q3.087,0,3.088-2.493T879.969-536.132Z" transform="translate(-800.346 538.53)" fill="#484e58"/>
      <path id="Контур_37" data-name="Контур 37" d="M885.455-536.132v-2.114h12.467v2.114H893.1v12.894h-2.826v-12.894Z" transform="translate(-798.113 538.53)" fill="#484e58"/>
      <path id="Контур_38" data-name="Контур 38" d="M898.693-524.925a7.333,7.333,0,0,1-2.268-5.747,7.375,7.375,0,0,1,2.268-5.759,8.156,8.156,0,0,1,5.687-2.052,8.19,8.19,0,0,1,5.713,2.052,7.378,7.378,0,0,1,2.267,5.759,7.337,7.337,0,0,1-2.267,5.747,8.212,8.212,0,0,1-5.713,2.043A8.178,8.178,0,0,1,898.693-524.925Zm10.651-5.747a5.936,5.936,0,0,0-1.377-4.12,4.6,4.6,0,0,0-3.587-1.53,4.561,4.561,0,0,0-3.573,1.53,5.966,5.966,0,0,0-1.366,4.12,5.928,5.928,0,0,0,1.366,4.1,4.563,4.563,0,0,0,3.573,1.533,4.6,4.6,0,0,0,3.587-1.533A5.9,5.9,0,0,0,909.344-530.672Z" transform="translate(-795.959 538.483)" fill="#484e58"/>
      <path id="Контур_39" data-name="Контур 39" d="M911.421-523.238v-15.008h2.874l6.958,10.687v-10.687h2.826v15.008H921.2l-6.958-10.687v10.687Z" transform="translate(-793.015 538.53)" fill="#484e58"/>
    </g>
  </g>
</svg>
