<svg xmlns="http://www.w3.org/2000/svg" width="49.699" height="30.596" viewBox="0 0 49.699 30.596">
  <path id="Icon_deals" data-name="Icon deals" d="M51.113,30.262l-6.1-10.145-.54-.917-.917.594-4.1,2.536a2.238,2.238,0,0,0-1.025,1.3,1.8,1.8,0,0,0,.054,1.187,10.8,10.8,0,0,1-3.454.594,18.272,18.272,0,0,1-4.8-.809c-.755-.216-1.565-.378-2.374-.54h-.7a3.192,3.192,0,0,0-2.428,1.079l-.432.486a6.207,6.207,0,0,0-2.212-.432H21.65c-.324,0-.594.054-.917.054-.7.054-1.4.108-2.1.108a7.626,7.626,0,0,1-3.454-.7,3.262,3.262,0,0,0,0-1.025,2.238,2.238,0,0,0-1.025-1.3L10.1,19.794,9.185,19.2l-.54.917L2.44,30.262l-.54.917.917.54,4.155,2.536a2.027,2.027,0,0,0,2.374-.108l3.508,4.1.054.108.108.054h0l-.755.863a2.706,2.706,0,0,0,.216,3.777h0A2.545,2.545,0,0,0,14.2,43.7h.324a2.365,2.365,0,0,0,1.025-.378,2.665,2.665,0,0,0,.863,1.727h0a2.545,2.545,0,0,0,1.727.648h.216a2.165,2.165,0,0,0,.809-.162,2.234,2.234,0,0,0,.809,1.565h0a2.319,2.319,0,0,0,1.511.594h.27a2.29,2.29,0,0,0,1.025-.324A2.167,2.167,0,0,0,25,48.933h.216a2.748,2.748,0,0,0,.917-.378l.054.054.755.594.054.054.054.054a2.984,2.984,0,0,0,1.619.486h.324a3.224,3.224,0,0,0,2.806-2.374,3.206,3.206,0,0,0,2.482-2.32,3.2,3.2,0,0,0,2.482-2.374h.216a3.223,3.223,0,0,0,2.914-3.4V38.95l.432-.54,3.723-4.317a2.1,2.1,0,0,0,2.482.108l4.155-2.536.917-.54Zm-43.6,3.076L3.357,30.8,9.509,20.657l4.1,2.536A.987.987,0,0,1,14.1,24.38l-.324.54L9.077,32.69l-.324.486a1.026,1.026,0,0,1-.7.27A.665.665,0,0,1,7.512,33.338Zm6.907,9.281h-.162A1.613,1.613,0,0,1,12.692,41a1.7,1.7,0,0,1,.378-1.025l2.86-3.238a1.757,1.757,0,0,1,1.241-.54,1.7,1.7,0,0,1,1.025.378,1.619,1.619,0,0,1,.162,2.266L15.5,42.08A1.605,1.605,0,0,1,14.419,42.619Zm3.993,2.051H18.25a1.613,1.613,0,0,1-1.565-1.619,1.7,1.7,0,0,1,.378-1.025l2.482-2.86a1.757,1.757,0,0,1,1.241-.54A1.7,1.7,0,0,1,21.812,39a1.619,1.619,0,0,1,.162,2.266l-2.482,2.86a1.409,1.409,0,0,1-1.079.54Zm3.4,2H21.65a1.323,1.323,0,0,1-.863-.324,1.354,1.354,0,0,1-.108-1.889l2.482-2.86a1.474,1.474,0,0,1,1.025-.432,1.225,1.225,0,0,1,.863.324,1.354,1.354,0,0,1,.108,1.889l-2.482,2.86a1.127,1.127,0,0,1-.863.432Zm3.292,1.3a1.135,1.135,0,0,1-.809-.27,1.1,1.1,0,0,1-.108-1.511l2.1-2.428a1.052,1.052,0,0,1,1.511-.108,1.1,1.1,0,0,1,.108,1.511l-2.1,2.428a1.128,1.128,0,0,1-.7.378Zm11.872-6.314h-.216a2.542,2.542,0,0,1-.917-.216c0,.108.054.216.054.324a2.127,2.127,0,0,1-1.943,2.32h0a1.836,1.836,0,0,1-.54-.054v.054a2.127,2.127,0,0,1-1.943,2.32h0a1.836,1.836,0,0,1-.54-.054V46.4a2.127,2.127,0,0,1-1.943,2.32h-.162a2.267,2.267,0,0,1-1.133-.324l-.7-.54,1.727-2a2.186,2.186,0,0,0-.216-3.022,2.157,2.157,0,0,0-1.4-.54,1.836,1.836,0,0,0-.54.054,2.389,2.389,0,0,0-2.428-2.266h0a3.644,3.644,0,0,0-.755.108,2.674,2.674,0,0,0-.917-2,2.312,2.312,0,0,0-1.727-.648h0a3.055,3.055,0,0,0-.971.162,2.879,2.879,0,0,0-.917-1.943,2.312,2.312,0,0,0-1.727-.648h0a2.788,2.788,0,0,0-2.051.917l-1.4,1.619L13.61,37.6,9.94,33.338l4.695-7.77a8,8,0,0,0,3.885.809,28.51,28.51,0,0,0,3.13-.216h.324a4.024,4.024,0,0,1,1.4.216l-2.968,3.508a3.2,3.2,0,0,0-.809,2.374,3.284,3.284,0,0,0,1.133,2.212h0a3.352,3.352,0,0,0,2.1.755h.27a3.174,3.174,0,0,0,2.212-1.133l3.669-4.209h0l.594.54,8.688,7.447a1.839,1.839,0,0,1,.594,1.349v.216a2.054,2.054,0,0,1-1.889,2.212Zm2.644-3.939a3.715,3.715,0,0,0-.594-.7L28.935,28.32,24.51,33.392a2.147,2.147,0,0,1-1.457.755h-.162a2.423,2.423,0,0,1-1.457-.54,2.077,2.077,0,0,1-.27-2.968l.054-.054,4.263-4.857a2.13,2.13,0,0,1,1.619-.7h.216c.108,0,.162.054.27.054,2.482.486,4.749,1.349,7.393,1.349a10.829,10.829,0,0,0,3.939-.7l3.13,5.072L43.5,33.23Zm6.421-4.371a1.041,1.041,0,0,1-.54.162,1.065,1.065,0,0,1-.755-.324l-.324-.54-1.457-2.374-3.4-5.612a1.026,1.026,0,0,1,.27-1.4c.054,0,.054-.054.108-.054L44.1,20.657,50.2,30.8Z" transform="translate(-1.9 -19.2)" fill="#484e58"/>
</svg>
