<svg id="Icon_deal_value" data-name="Icon deal value" xmlns="http://www.w3.org/2000/svg" width="42.149" height="33.479" viewBox="0 0 42.149 33.479">
  <path id="Контур_585" data-name="Контур 585" d="M10.913,42.467V42.34a1.376,1.376,0,0,0-1.376-1.376H7.7V39.8a3.134,3.134,0,0,1-1.591-1.591L4.77,37.834a.914.914,0,0,1-.665-.775l-1.092-9.1a.917.917,0,0,1,.8-1.02l.056-.005,5.056-.3H8.98a.921.921,0,0,1,.909.8l.266,2.06.772-1.184-.128-.993a1.843,1.843,0,0,0-1.926-1.6l-1.677.1-.4-2.439a.917.917,0,0,1,.759-1.052q.042-.007.084-.01l4.111-.275h.063a.911.911,0,0,1,.9.78l.342,2.217.751-1.15-.186-1.207a1.822,1.822,0,0,0-1.935-1.55l-.429.029-.2-1.762a.917.917,0,0,1,.807-1.016l.034,0,3.21-.247c.025,0,.049,0,.073,0a.913.913,0,0,1,.91.821l.183,1.756a4.618,4.618,0,0,1,.871-.473l-.143-1.377a1.821,1.821,0,0,0-1.965-1.637l-3.21.247a1.834,1.834,0,0,0-1.688,1.97q0,.031.006.062l.191,1.722-2.766.183a1.834,1.834,0,0,0-1.708,1.952q.006.087.02.172l.382,2.346-2.458.144A1.834,1.834,0,0,0,2.092,27.96q0,.056.01.111l1.093,9.1a1.828,1.828,0,0,0,1.33,1.549l2.261.628v1.619H4.951A1.376,1.376,0,0,0,3.575,42.34v.127a.917.917,0,1,0,.917,0V42.34a.459.459,0,0,1,.459-.459H6.785v.586a.917.917,0,1,0,.917,0v-.586H9.537A.459.459,0,0,1,10,42.34v.127a.917.917,0,1,0,.917,0Z" transform="translate(-2.088 -14.364)" fill="#484e58"/>
  <path id="Контур_586" data-name="Контур 586" d="M73.768,38.718a1.828,1.828,0,0,0,1.33-1.549l1.092-9.1a1.834,1.834,0,0,0-1.6-2.04q-.055-.007-.111-.01l-2.458-.144.382-2.346a1.834,1.834,0,0,0-1.516-2.1q-.086-.014-.172-.02l-2.766-.183.192-1.72a1.834,1.834,0,0,0-1.621-2.026l-.062-.006-3.21-.247a1.829,1.829,0,0,0-1.964,1.636l-.15,1.431A4.584,4.584,0,0,1,62,20.8l.194-1.848a.912.912,0,0,1,.91-.821.551.551,0,0,1,.072,0l3.21.247a.917.917,0,0,1,.844.985c0,.01,0,.021,0,.031l-.195,1.762-.429-.029a1.825,1.825,0,0,0-1.935,1.55l-.212,1.371.751,1.149.367-2.381a.912.912,0,0,1,.9-.78h.063l4.111.275a.917.917,0,0,1,.854.976q0,.043-.01.086l-.4,2.439-1.677-.1a1.837,1.837,0,0,0-1.926,1.6l-.15,1.16.772,1.183.287-2.226a.92.92,0,0,1,.91-.8h.054l5.055.3a.917.917,0,0,1,.862.969q0,.028-.005.056l-1.095,9.1a.917.917,0,0,1-.665.775l-1.487.413a3.133,3.133,0,0,1-1.445,1.489v1.228H68.756a1.376,1.376,0,0,0-1.376,1.376v.169a.917.917,0,1,0,.917-.079v-.09a.459.459,0,0,1,.459-.459H70.59v.586a.917.917,0,1,0,.917,0v-.586h1.834a.459.459,0,0,1,.459.459v.127a.917.917,0,1,0,.917,0v-.127a1.376,1.376,0,0,0-1.376-1.376H71.507V39.346Z" transform="translate(-34.054 -14.365)" fill="#484e58"/>
  <path id="Контур_587" data-name="Контур 587" d="M43.271,43.311a2.269,2.269,0,0,0,1.556-1.394,2.119,2.119,0,0,0-.245-1.949L35.855,26.6l-.006-.01-.007-.01A3.735,3.735,0,0,0,32.756,25H24.541a3.734,3.734,0,0,0-3.086,1.582l-.007.01-.007.01L12.721,39.97a2.12,2.12,0,0,0-.245,1.948,2.269,2.269,0,0,0,1.554,1.394l2.981.8q2.13.57,4.3.928v4.845a1.376,1.376,0,0,0,1.042,1.334l.691.173A22.367,22.367,0,0,0,34.235,51.3l.275-.074a1.376,1.376,0,0,0,1.021-1.33V45.1a45,45,0,0,0,4.69-.978ZM34.614,49.9a.459.459,0,0,1-.34.443L34,50.415a21.447,21.447,0,0,1-10.727.084l-.691-.173a.459.459,0,0,1-.348-.445V45.172a45.041,45.041,0,0,0,6.408.464,45.056,45.056,0,0,0,5.973-.4Zm-5.973-5.179a44.133,44.133,0,0,1-11.394-1.5l-2.98-.8a1.268,1.268,0,0,1-.784-1.946L22.209,27.1a2.828,2.828,0,0,1,2.332-1.186h8.216A2.828,2.828,0,0,1,35.087,27.1l8.733,13.376a1.268,1.268,0,0,1-.785,1.948l-3.05.811A44.123,44.123,0,0,1,28.641,44.719Z" transform="translate(-7.64 -18.578)" fill="#484e58"/>
  <path id="Контур_588" data-name="Контур 588" d="M39.893,13.286a.8.8,0,0,1,.21-.543,2.522,2.522,0,0,1,.548-.293,5.916,5.916,0,0,1,4.961.018,1.772,1.772,0,0,1,.443.26.8.8,0,0,1,.226.558V16.5H47.2V13.286a1.718,1.718,0,0,0-.5-1.212,2.544,2.544,0,0,0-.691-.434,6.833,6.833,0,0,0-5.732-.028,3.153,3.153,0,0,0-.8.459,1.722,1.722,0,0,0-.5,1.216V16.5h.917Z" transform="translate(-22.059 -10.996)" fill="#484e58"/>
</svg>
